<?xml version="1.0" standalone="no"?><!DOCTYPE svg PUBLIC "-//W3C//DTD SVG 1.1//EN" "http://www.w3.org/Graphics/SVG/1.1/DTD/svg11.dtd"><svg t="1635069823216" class="icon" viewBox="0 0 1024 1024" version="1.1" xmlns="http://www.w3.org/2000/svg" p-id="10578" xmlns:xlink="http://www.w3.org/1999/xlink" width="200" height="200"><defs><style type="text/css"></style></defs><path d="M781.1072 971.0592H249.2928c-90.3168 0-163.84-73.5232-163.84-163.84V402.688c0-90.3168 73.5232-163.84 163.84-163.84h531.8144c90.3168 0 163.84 73.5232 163.84 163.84v404.5312c0 90.3168-73.472 163.84-163.84 163.84zM249.2928 300.288c-56.4736 0-102.4 45.9264-102.4 102.4v404.5312c0 56.4736 45.9264 102.4 102.4 102.4h531.8144c56.4736 0 102.4-45.9264 102.4-102.4V402.688c0-56.4736-45.9264-102.4-102.4-102.4H249.2928z" fill="#424242" p-id="10579"></path><path d="M691.968 457.8816c-16.9472 0-30.72-13.7728-30.72-30.72V262.5024c0-81.664-66.4064-148.0704-148.0704-148.0704S365.1072 180.8384 365.1072 262.5024v164.6592c0 16.9472-13.7728 30.72-30.72 30.72s-30.72-13.7728-30.72-30.72V262.5024c0-115.5584 94.0032-209.5104 209.5104-209.5104s209.5104 94.0032 209.5104 209.5104v164.6592c0 16.9472-13.7216 30.72-30.72 30.72z" p-id="10580"></path></svg>