<?xml version="1.0" standalone="no"?><!DOCTYPE svg PUBLIC "-//W3C//DTD SVG 1.1//EN" "http://www.w3.org/Graphics/SVG/1.1/DTD/svg11.dtd"><svg t="1635068964011" class="icon" viewBox="0 0 1066 1024" version="1.1" xmlns="http://www.w3.org/2000/svg" p-id="3403" xmlns:xlink="http://www.w3.org/1999/xlink" width="208.203125" height="200"><defs><style type="text/css"></style></defs><path d="M889.094103 274.951066v484.804685c0 19.272271-15.417817 34.690088-34.690088 34.690088H212.423254c-19.272271 0-34.690088-15.417817-34.690088-34.690088V274.951066h711.360937z" fill="#6F68E6" p-id="3404"></path><path d="M840.759247 323.337315v423.133417h-614.571309v-423.133417z" fill="#FFFFFF" p-id="3405"></path><path d="M448.401506 794.445839h170.45253v53.105813h-170.45253z" fill="#C9E6F8" p-id="3406"></path><path d="M746.479297 882.670013H320.347972c0-9.421999 3.854454-18.415726 10.278544-24.839816s14.989544-10.278545 24.839816-10.278545h356.75115c18.843998 0.428273 34.261815 15.84609 34.261815 35.118361z" fill="#6F68E6" p-id="3407"></path><path d="M555.469678 553.756587C539.623588 521.207863 507.074864 501.079046 471.099958 501.079046H418.422417c-2.997909-12.419908-10.278545-23.554998-20.557089-31.263906-4.282727-2.997909-6.42409-7.708908-5.995817-12.848181 0.428273-7.280636 6.42409-13.276453 13.704726-13.704726 4.282727-0.428273 8.137181 1.284818 11.13509 3.854455 2.997909 2.997909 4.711 6.852363 4.710999 10.706817h26.98118c0-11.563363-4.711-22.698453-13.276454-30.835634-8.565454-8.137181-19.700544-11.991635-31.263906-11.13509-20.985362 1.284818-38.116269 17.987453-39.401087 39.401088-0.856545 14.132999 5.567545 27.837725 16.702634 36.403178 3.426182 2.569636 5.995818 5.995818 8.137182 9.850272h-47.109996c-35.974906 0-68.52363 20.128816-84.36972 52.249268-5.995818 11.991635-5.139272 25.696361 1.713091 36.831451 6.852363 11.13509 18.843998 17.987453 32.120451 17.987453h229.554162c13.276453 0 25.268089-6.852363 32.120452-17.987453 7.280636-11.13509 8.137181-24.839816 2.141363-36.831451z m-24.839816 22.27018c-0.856545 1.713091-3.854454 5.139272-9.421999 5.139272H292.081974c-5.567545 0-8.137181-3.426182-9.421999-5.139272-0.856545-1.713091-2.997909-5.567545-0.428273-10.706817 11.13509-23.126725 34.261815-37.259724 59.958177-37.259724H471.099958c25.696361 0 48.823087 14.132999 59.958177 37.259724 2.569636 5.139272 0.428273 9.421999-0.428273 10.706817z" fill="#E0E0E0" p-id="3408"></path><path d="M312.21079 567.889586H501.079046v148.18235H312.21079z" fill="#FF5252" p-id="3409"></path><path d="M605.14931 619.282309H800.869929v52.249268h-195.720619zM605.14931 546.047679H800.869929v52.249268h-195.720619zM605.14931 473.241322H800.869929v52.249268h-195.720619z" fill="#E4E4E4" p-id="3410"></path><path d="M897.659557 402.576328c-33.40527 11.563363-71.093266 4.711-98.930992-19.272271l-15.846089-129.766625-13.704726-112.207445h77.089084c23.554998 0 43.683814 16.702635 47.966541 39.829361l13.276454 72.378084 18.415725 100.644082c3.854454 20.985362-8.137181 41.542451-28.265997 48.394814z" fill="#E2E0FF" p-id="3411"></path><path d="M798.728565 383.304057c-38.116269 33.40527-94.648264 33.40527-132.764533 0l-7.708909-129.766625-6.852363-112.207445h117.77499l13.704726 112.207445 15.846089 129.766625z" fill="#A6A2F0" p-id="3412"></path><path d="M665.964032 383.304057c-38.116269 33.40527-94.648264 33.40527-132.764534 0V141.329987H650.974488l6.852363 112.207445 8.137181 129.766625z" fill="#E2E0FF" p-id="3413"></path><path d="M533.627771 141.329987v241.97407c-38.116269 33.40527-94.648264 33.40527-132.764534 0l8.137181-129.766625L415.424509 141.329987h118.203262z" fill="#A6A2F0" p-id="3414"></path><path d="M408.572146 253.537432l-8.137182 129.766625c-38.116269 33.40527-94.648264 33.40527-132.764533 0l15.846089-129.766625L297.649519 141.329987H415.424509l-6.852363 112.207445z" fill="#E2E0FF" p-id="3415"></path><path d="M297.649519 141.329987l-13.704726 112.207445-15.84609 129.766625c-27.837725 24.411543-65.953994 30.835634-98.930991 19.272271-20.128816-6.852363-32.120452-27.837725-28.265997-48.394814l18.415725-100.644082 13.276454-72.378084c4.282727-23.126725 24.411543-39.82936 47.966541-39.829361h77.089084z" fill="#A6A2F0" p-id="3416"></path><path d="M312.21079 567.889586H501.079046v26.981179H312.21079z" p-id="3417"></path></svg>