<?xml version="1.0" standalone="no"?><!DOCTYPE svg PUBLIC "-//W3C//DTD SVG 1.1//EN" "http://www.w3.org/Graphics/SVG/1.1/DTD/svg11.dtd"><svg t="1635076846028" class="icon" viewBox="0 0 1024 1024" version="1.1" xmlns="http://www.w3.org/2000/svg" p-id="29626" xmlns:xlink="http://www.w3.org/1999/xlink" width="200" height="200"><defs><style type="text/css"></style></defs><path d="M874.7 97.5H149.3c-28.6 0-51.8 23.2-51.8 51.8v569.4c0 28.6 23.2 51.8 51.8 51.8h725.4c28.6 0 51.8-23.2 51.8-51.8V149.3c0-28.6-23.2-51.8-51.8-51.8z m-358.5 78.3c58.1 0 105.4 47.3 105.4 105.3 0 64.4-60.2 118.1-131.2 100.9-36.6-8.6-64.5-36.5-75.2-70.9-19.4-70.9 32.2-135.3 101-135.3z m172.1 506.9l-2.2 2.2c-13 10.7-51.7 38.6-51.7 38.6-2.2 0-2.2 2.2-2.2 2.2H389.5s0-2.2-2.2-2.2c0 0-38.8-27.8-51.6-38.6l-2.2-2.2c-6.5-62.3 47.3-259.9 47.3-259.9 2.2-8.6 8.6-12.9 15.1-12.9h96.7L484 425l10.8 21.5-21.7 159c0 6.4 2.2 12.9 6.5 17.2l30.1 32.2v2.2l1.1-1.1 1.1 1.1v-2.2l30.1-32.2c4.3-4.3 6.5-10.7 6.5-17.2l-21.5-159 10.8-21.5-8.6-15.1h96.7c6.5 0 12.9 4.3 15.1 12.9-0.1 0.1 53.6 197.7 47.3 259.9zM848.8 887.7H721.2c0.9-3.2 1.6-6.4 1.6-9.9v-6.1c0-19.8-16-35.8-35.8-35.8H337c-19.8 0-35.8 16-35.8 35.8v6.1c0 3.5 0.6 6.7 1.6 9.9H175.2c-10.7 0-19.4 8.7-19.4 19.4s8.7 19.4 19.4 19.4h673.6c10.7 0 19.4-8.7 19.4-19.4s-8.7-19.4-19.4-19.4z" p-id="29627"></path></svg>