<?xml version="1.0" standalone="no"?><!DOCTYPE svg PUBLIC "-//W3C//DTD SVG 1.1//EN" "http://www.w3.org/Graphics/SVG/1.1/DTD/svg11.dtd"><svg t="1635076136285" class="icon" viewBox="0 0 1024 1024" version="1.1" xmlns="http://www.w3.org/2000/svg" p-id="27130" xmlns:xlink="http://www.w3.org/1999/xlink" width="200" height="200"><defs><style type="text/css"></style></defs><path d="M656 512c132.548 0 240 107.452 240 240v112c0 70.692-57.308 128-128 128H192c-70.692 0-128-57.308-128-128V752c0-132.548 107.452-240 240-240h352z m48-480v208c0 114.875-93.125 208-208 208h-32c-114.875 0-208-93.125-208-208S349.125 32 464 32h240z m72 224h176a8 8 0 0 1 8 8v48a8 8 0 0 1-8 8H776a8 8 0 0 1-8-8v-48a8 8 0 0 1 8-8z m64 160h112a8 8 0 0 1 8 8v48a8 8 0 0 1-8 8H840a8 8 0 0 1-8-8v-48a8 8 0 0 1 8-8z" p-id="27131"></path></svg>